<svg preserveAspectRatio="none" overflow="visible" style="display: block;" width="16" height="16" viewBox="0 0 16 16" fill="none" xmlns="http://www.w3.org/2000/svg">
<g id="icon">
<path id="Rectangle 551" d="M8.5 5.09668C9.14948 6.62732 10.3718 7.85031 11.9023 8.5C10.3721 9.14957 9.14957 10.3721 8.5 11.9023C7.85031 10.3718 6.62732 9.14948 5.09668 8.5C6.6276 7.8504 7.8504 6.6276 8.5 5.09668Z" fill="#9EA5AE" stroke="#9EA5AE" stroke-width="1.5"/>
<path id="Rectangle 550" d="M2.07143 4.21428C1.8372 4.16743 1.8372 3.83255 2.07143 3.78571C2.9365 3.61269 3.6127 2.93649 3.78571 2.07142C3.83256 1.83719 4.16744 1.83719 4.21429 2.07142C4.3873 2.93649 5.0635 3.61269 5.92857 3.78571C6.1628 3.83256 6.1628 4.16744 5.92857 4.21429C5.0635 4.3873 4.3873 5.0635 4.21429 5.92857C4.16744 6.1628 3.83256 6.1628 3.78571 5.92857C3.6127 5.0635 2.9365 4.3873 2.07143 4.21428Z" fill="#9EA5AE"/>
</g>
</svg>
